<svg id="Layer_2" data-name="Layer 2" xmlns="http://www.w3.org/2000/svg" viewBox="0 0 477.3 264.1"><defs><style>.cls-1,.cls-3{fill:none;stroke:#000;stroke-linecap:round;stroke-linejoin:round;}.cls-1{stroke-width:0.67px;}.cls-2{isolation:isolate;}.cls-3{stroke-width:0.33px;}.cls-4{fill:#fff;}</style></defs><title>OJ103614615</title><path id="path34" class="cls-1" d="M127.4,214.5c0-10.2,14.2-18.5,31.6-18.5s31.6,8.3,31.6,18.5S176.5,233,159,233s-31.6-8.2-31.6-18.5"/><path id="path48" class="cls-1" d="M267.9,56.7c0-14.5,17-26.3,38.1-26.3s38.1,11.8,38.1,26.3S327.1,83,306,83s-38.1-11.8-38.1-26.3"/><path id="path64" class="cls-1" d="M389.8,233c0-10.6,16.6-19.3,37-19.3s37,8.6,37,19.3-16.6,19.3-37,19.3-37-8.6-37-19.3"/><g class="cls-2"><path d="M402.8,229.7h-.7c-.2,0-.3.1-.4.1h-1a2.81,2.81,0,0,0-1.1.1.52.52,0,0,0-.2.4.9.9,0,0,1-.1.5c-.1.6-.2,1-.2,1.2h.1a3.22,3.22,0,0,0,.8-.1,3.44,3.44,0,0,1,.9-.1,5.76,5.76,0,0,1,1-.2c.4,0,.5.1.5.3a.37.37,0,0,1-.4.4,10.87,10.87,0,0,1-1.5.2c-.9.1-1.5.2-1.5.3s-.1.4-.2.8a3.44,3.44,0,0,0-.1.9h0q0,.15.3.3h.7l.8-.1a4.4,4.4,0,0,0,1-.2,3.22,3.22,0,0,1,.8-.1.37.37,0,0,1,.3.1c.1.1.2.2.2.3s0,.2-.1.2a3.73,3.73,0,0,1-1.2.2c-.4,0-1,.1-1.9.2a3.44,3.44,0,0,1-.9.1c-.3,0-.6,0-.6-.1s-.1-.2-.2-.4v-.1h0a.77.77,0,0,1,.1-.3,5,5,0,0,0,.3-1.2,9.32,9.32,0,0,0,.2-1.4.6.6,0,0,1,.1-.4,14.93,14.93,0,0,0,.2-1.7.31.31,0,0,0-.1-.2h0c0-.1,0-.1-.1-.2v-.1h0c0-.1,0-.1.1-.2a.31.31,0,0,1,.2-.1h.4a5.81,5.81,0,0,0,1-.1q.9-.15,2.1-.3h.3a.75.75,0,0,1,.5.1c.1.1.1.2.2.3s0,.2-.1.2S402.9,229.7,402.8,229.7Z"/><path d="M403.5,230.1v-.2a.37.37,0,0,1,.1-.3,5.53,5.53,0,0,1,.9-.1,8.08,8.08,0,0,0,1.6-.1,10.4,10.4,0,0,0,2.1-.3c.4,0,.7-.1,1-.1h.5c.2,0,.3,0,.3.1s.1.1.2.2a.35.35,0,0,0,.1.2c0,.2-.1.3-.2.3H409a4.48,4.48,0,0,0-1.1.1c-.4,0-.7.1-.7.2s-.1.7-.2,1.7-.2,1.8-.2,2.3a2.49,2.49,0,0,0,.1.8v.1a.37.37,0,0,1-.1.3c-.1.1-.2.2-.3.2a.52.52,0,0,1-.4-.2,2.53,2.53,0,0,1-.2-1.2,25.64,25.64,0,0,1,.4-3.7v-.2c0-.1-.1-.1-.2-.1a4.59,4.59,0,0,0-1,.1c-.5,0-.8.1-1.1.1S403.6,230.2,403.5,230.1Z"/><path d="M413.2,229.1v.5l.1.2.3.9c.1.3.2.6.3,1a13.77,13.77,0,0,0,.8,2,3.08,3.08,0,0,0,.8,1.2l.3.3c0,.1.1.1.1.2a.35.35,0,0,1-.4.4c-.4,0-.8-.6-1.4-1.8-.2-.5-.3-.7-.4-.7a4.4,4.4,0,0,0-.9.1c-.5.1-.9.2-1.3.3a1,1,0,0,1-.4.1c-.1,0-.1,0-.2-.1h-.1c-.1,0-.2.2-.4.6-.4.6-.6,1-.7,1.1s-.2.2-.3.2a.37.37,0,0,1-.3-.1c-.1-.1-.2-.2-.2-.3s.1-.2.2-.4.3-.5.6-1q.9-1.35,1.5-2.4a11.7,11.7,0,0,1,1.2-2.1c.2-.2.3-.3.4-.3S413.1,229,413.2,229.1Zm.3,3.5a12.25,12.25,0,0,1-.5-1.3c-.2-.7-.4-1.1-.4-1.2-.2.3-.4.8-.7,1.4l-.8,1.5a2,2,0,0,1,.5-.1.75.75,0,0,0,.5-.1C412.9,232.7,413.4,232.6,413.5,232.6Z"/><path d="M423.8,229.1v.5l.1.2.3.9c.1.3.2.6.3,1a13.77,13.77,0,0,0,.8,2,3.08,3.08,0,0,0,.8,1.2l.3.3c0,.1.1.1.1.2a.35.35,0,0,1-.4.4c-.4,0-.8-.6-1.4-1.8-.2-.5-.3-.7-.4-.7a4.4,4.4,0,0,0-.9.1c-.5.1-.9.2-1.3.3a1,1,0,0,1-.4.1c-.1,0-.1,0-.2-.1h-.1c-.1,0-.2.2-.4.6-.4.6-.6,1-.7,1.1s-.2.2-.3.2a.37.37,0,0,1-.3-.1c-.1-.1-.2-.2-.2-.3s.1-.2.2-.4.3-.5.6-1q.9-1.35,1.5-2.4a11.7,11.7,0,0,1,1.2-2.1c.2-.2.3-.3.4-.3S423.7,229,423.8,229.1Zm.3,3.5a12.25,12.25,0,0,1-.5-1.3c-.2-.7-.4-1.1-.4-1.2-.2.3-.4.8-.7,1.4l-.8,1.5a2,2,0,0,1,.5-.1.75.75,0,0,0,.5-.1C423.5,232.7,424,232.6,424.1,232.6Z"/><path d="M430.2,232c-.2,0-.3.1-.5.3a4.19,4.19,0,0,0-.8,1.3c-.5.9-.8,1.5-.9,1.6a.76.76,0,0,1-.4.2.47.47,0,0,1-.5-.5,1.76,1.76,0,0,1,.1-.6,12.74,12.74,0,0,0,.2-2.8.76.76,0,0,1,.1-.4c.1-.1.2-.2.3-.2s.3,0,.3.1a3.54,3.54,0,0,1,.1.6,10.53,10.53,0,0,1-.3,1.8,1.76,1.76,0,0,0-.1.6v.1s.2-.3.6-1a7.64,7.64,0,0,1,1-1.5,1.22,1.22,0,0,1,.9-.4.55.55,0,0,1,.6.4,2.83,2.83,0,0,1,.4,1.3c.1.7.2,1.2.2,1.4s.2.3.3.3a.37.37,0,0,0,.3-.1h.1a.22.22,0,0,1,.2.2.54.54,0,0,1-.3.4,1.42,1.42,0,0,1-.6.2.86.86,0,0,1-.6-.3,6.19,6.19,0,0,1-.3-1.6C430.7,232.5,430.5,232,430.2,232Z"/><path d="M436.2,233.8A3.4,3.4,0,0,1,435,235a3,3,0,0,1-1.1.4.86.86,0,0,1-.6-.3.84.84,0,0,1-.2-.7,4,4,0,0,1,1-2.5,2.75,2.75,0,0,1,2.1-1.3.51.51,0,0,1,.5.4c0,.1.1.1.2.1s.4.1.4.3v.4a7.74,7.74,0,0,0-.2,1.8c0,.7.1,1.1.4,1.3.1.1.2.2.2.3s-.1.2-.2.3-.2.1-.4.1-.4-.2-.6-.5A2.27,2.27,0,0,1,436.2,233.8Zm-.3-2.5c-.4,0-.8.4-1.3,1.1a3.44,3.44,0,0,0-.8,1.8c0,.3.1.5.3.5s.8-.3,1.3-1a3.39,3.39,0,0,0,.9-1.8C436.3,231.5,436.2,231.3,435.9,231.3Z"/><path d="M440,228c.2,0,.3.1.3.4a7,7,0,0,1-.4,1.7,10.62,10.62,0,0,0-.4,1.9,10.36,10.36,0,0,0-.1,1.6,6.15,6.15,0,0,0,.1,1.4v.2a.6.6,0,0,1-.1.4c-.1.1-.2.2-.3.2a.27.27,0,0,1-.3-.3,2.22,2.22,0,0,1-.1-.9,17.13,17.13,0,0,1,.4-3.6,6.35,6.35,0,0,1,.6-2.5C439.8,228.1,439.9,228,440,228Z"/><path d="M444.3,233.9a5.27,5.27,0,0,1-1.4,1,2.3,2.3,0,0,1-.9.3.75.75,0,0,1-.7-.4,1.08,1.08,0,0,1-.2-.8,6.09,6.09,0,0,1,.3-1.7,4.93,4.93,0,0,1,.4-1.2.52.52,0,0,1,.4-.2c.1,0,.1,0,.2.1a.5.5,0,0,1,0,.6c-.2.3-.2.4-.2.5a4.2,4.2,0,0,0-.2.5,2.92,2.92,0,0,0-.2.9,1.09,1.09,0,0,0,.1.5.27.27,0,0,0,.3.3,1.27,1.27,0,0,0,.6-.1,9.22,9.22,0,0,0,.8-.5,3.81,3.81,0,0,0,.6-.5.76.76,0,0,0,.2-.5c0-.2.1-.6.1-1.1s.2-.9.4-.9.3,0,.3.1a2,2,0,0,1,.1.5v.7c0,.4-.1.6-.1.8a9.86,9.86,0,0,1-.3,2.4,7.71,7.71,0,0,1-.7,2,1.56,1.56,0,0,1-1.3.8,2.46,2.46,0,0,1-1.5-.5c-.4-.3-.7-.6-.7-.8a.37.37,0,0,1,.1-.3c0-.1.1-.1.2-.1a.1.1,0,0,1,.1.1,2,2,0,0,0,1.8.9c.4,0,.8-.4,1.1-1.1a8,8,0,0,0,.5-2.1C444.3,234.1,444.3,234,444.3,233.9Z"/><path d="M448.6,234.4c0-.2-.2-.4-.7-.7a5.35,5.35,0,0,1-1.2-.7.86.86,0,0,1-.3-.6,1.51,1.51,0,0,1,.9-1.4,3,3,0,0,1,1.4-.6.75.75,0,0,1,.5.1.52.52,0,0,1,.2.4c0,.1,0,.2-.1.2s-.1.1-.2.1a.31.31,0,0,1-.2-.1.35.35,0,0,1-.2-.1,4.18,4.18,0,0,0-.9.3c-.4.2-.7.5-.7.7a.52.52,0,0,0,.2.4,5.76,5.76,0,0,0,.9.5,5.58,5.58,0,0,1,.8.5.86.86,0,0,1,.3.6c0,.4-.3.8-.9,1.1a3.92,3.92,0,0,1-1.8.4c-.5,0-.7-.2-.7-.5a.22.22,0,0,1,.2-.2.37.37,0,0,1,.3-.1h.5a3.55,3.55,0,0,0,1-.2C448.3,234.7,448.5,234.6,448.6,234.4Z"/><path d="M451.1,234.4a2.49,2.49,0,0,0,.1.8v.1c0,.1,0,.1-.1.2a.37.37,0,0,1-.3.1c-.3,0-.4-.3-.4-.8a18.48,18.48,0,0,1,.3-2.6,3.22,3.22,0,0,0,.1-.8.9.9,0,0,1,.1-.5c.1-.1.2-.2.3-.2a.6.6,0,0,1,.4.1.31.31,0,0,1,.1.2.49.49,0,0,1-.1.3,9.54,9.54,0,0,0-.4,1.7C451.2,233.4,451.1,234,451.1,234.4Zm.5-4.9c-.1,0-.1-.1-.1-.2v-.1a1.09,1.09,0,0,1-.1-.5c0-.1.1-.2.2-.4a.76.76,0,0,1,.5-.2.37.37,0,0,1,.3.1c.1.1.2.1.2.2a1.09,1.09,0,0,1-.1.5,2.19,2.19,0,0,1-.3.5A2.14,2.14,0,0,1,451.6,229.5Z"/><path d="M455,234.4c0-.2-.2-.4-.7-.7a5.35,5.35,0,0,1-1.2-.7.86.86,0,0,1-.3-.6,1.51,1.51,0,0,1,.9-1.4,3,3,0,0,1,1.4-.6.75.75,0,0,1,.5.1.52.52,0,0,1,.2.4c0,.1,0,.2-.1.2s-.1.1-.2.1a.31.31,0,0,1-.2-.1.35.35,0,0,1-.2-.1,4.18,4.18,0,0,0-.9.3c-.4.2-.7.5-.7.7a.52.52,0,0,0,.2.4,5.76,5.76,0,0,0,.9.5,5.58,5.58,0,0,1,.8.5.86.86,0,0,1,.3.6c0,.4-.3.8-.9,1.1a3.92,3.92,0,0,1-1.8.4c-.5,0-.7-.2-.7-.5a.22.22,0,0,1,.2-.2.37.37,0,0,1,.3-.1h.5a3.55,3.55,0,0,0,1-.2C454.7,234.7,454.9,234.6,455,234.4Z"/></g><path id="path78" class="cls-1" d="M18.4,44.4c0-11.1,13.1-20.2,29.2-20.2s29.2,9,29.2,20.2S63.7,64.6,47.6,64.6,18.4,55.5,18.4,44.4"/><path id="path92" class="cls-1" d="M388.1,32.2c0-11.3,18.8-20.5,42-20.5s42,9.2,42,20.5-18.8,20.5-42,20.5-42-9.2-42-20.5"/><path id="path108" class="cls-1" d="M7.4,175.5c0-11.1,13-20.2,29.1-20.2s29.1,9,29.1,20.2-13,20.2-29.1,20.2S7.4,186.6,7.4,175.5"/><path id="path122" class="cls-1" d="M295.5,140.6c0-9.9,15.6-18,34.9-18s34.9,8,34.9,18-15.6,18-34.9,18-34.9-8-34.9-18"/><path id="path150" class="cls-1" d="M405.1,105.7c0-12.6,13-22.8,28.9-22.8s28.9,10.2,28.9,22.8S450,128.5,434,128.5s-28.9-10.2-28.9-22.8"/><path id="path166" class="cls-1" d="M257.4,243.6c0-10.5,16-19,35.8-19s35.8,8.5,35.8,19-16,19-35.8,19-35.8-8.5-35.8-19"/><path id="path175" class="cls-1" d="M93.7,32.9c0-11.7,18.2-21.2,40.6-21.2S175,21.2,175,32.9s-18.2,21.2-40.7,21.2S93.7,44.6,93.7,32.9"/><g id="shape52-83"><path id="path198" class="cls-3" d="M183.59,141.69l-24.3,54.5"/></g><g id="shape58-89"><path id="path208" class="cls-3" d="M421.48,212.83l-84.7-140.6"/></g><path id="path220" class="cls-1" d="M13.4,241.4c0-11,16.6-20,37.2-20s37.2,9,37.2,20-16.6,20-37.2,20-37.2-8.9-37.2-20"/><g id="shape63-98"><path id="path227" class="cls-3" d="M237.49,96.87l34.9-25.1"/></g><g id="shape65-101"><path id="path232" class="cls-3" d="M342.67,62.75l62.4,43.1"/></g><g id="shape67-104"><path id="path237" class="cls-3" d="M333.48,37.72l54.8-8"/></g><g id="shape70-107"><path id="path242" class="cls-3" d="M83.19,97.16l86.3,23"/></g><g id="shape73-110"><path id="path247" class="cls-3" d="M74.5,111.46l62.3,90.2"/></g><g id="shape76-113"><path id="path252" class="cls-3" d="M181.46,227.66l75.9,16.1"/></g><g id="shape77-116"><path id="path257" class="cls-3" d="M217.73,149.2l55.9,78.5"/></g><g id="shape78-119"><path id="path262" class="cls-3" d="M295.68,140.18l-46.5-20"/></g><g id="shape79-122"><path id="path267" class="cls-3" d="M127.72,214.75l-61-28.6"/></g><g id="shape80-125"><path id="path272" class="cls-3" d="M136.79,227.7l-49,13.7"/></g><g id="shape81-128"><path id="path277" class="cls-3" d="M181.2,96.76l-107.9-42"/></g><g id="shape82-131"><path id="path282" class="cls-3" d="M310,82.94l4.7,40"/></g><g id="shape94-134"><path id="path287" class="cls-4" d="M308.56,108.29h-.3V107c0-.1.1,0,.1,0h.2v.1l.1,1.1h0c0,.1,0,.1-.1.1Z"/></g><g id="shape96-136"><path id="path292" class="cls-3" d="M270.48,28.26l8.9,8.5"/></g><g id="shape97-139"><path id="path297" class="cls-3" d="M175.17,36.36l92.3,16.1"/></g><path id="path78-2" data-name="path78" class="cls-1" d="M24.6,97c0-11.1,13.1-20.2,29.2-20.2S83,85.8,83,97s-13.1,20.2-29.2,20.2S24.6,108.1,24.6,97"/><path id="path175-2" data-name="path175" class="cls-1" d="M201.1,17.8c0-8.7,17.4-15.9,38.8-15.9S278.7,9,278.7,17.8s-17.4,15.9-38.8,15.9-38.8-7.1-38.8-15.9"/><path id="path78-3" data-name="path78" class="cls-1" d="M170.2,119.2c0-16.5,17.5-30,38.9-30,21.6,0,38.9,13.4,38.9,30s-17.5,30-38.9,30c-21.4-.2-38.9-13.5-38.9-30"/><path d="M121,30.21V24.68h.66v2.17h2.74V24.68h.66v5.53Zm3.4-2.77h-2.74v2.18h2.74Zm2.31,5.08V24h.65v8.48Z"/><path d="M134.83,30.11c-.47.05-1,.09-1.54.1s-1.57,0-3,0V24.8h4.09v.58h-3.43v4.27a38.06,38.06,0,0,0,3.85-.11Zm1,2.41V24h.66v8.48Z"/><path d="M138.42,31.18V30.6H142V28.89a3.14,3.14,0,0,1-1.87-.65,1.83,1.83,0,0,1-.66-1.47,1.8,1.8,0,0,1,.79-1.55,3.43,3.43,0,0,1,2.07-.57,3.52,3.52,0,0,1,2.07.56,2,2,0,0,1,.12,3,3.13,3.13,0,0,1-1.86.65V30.6h3.6v.58Zm1.75-4.41a1.29,1.29,0,0,0,.6,1.13,2.73,2.73,0,0,0,1.58.42,2.67,2.67,0,0,0,1.57-.42,1.35,1.35,0,0,0,0-2.25,2.67,2.67,0,0,0-1.57-.42,2.71,2.71,0,0,0-1.58.42A1.3,1.3,0,0,0,140.17,26.77Z"/><path d="M129.29,35.29q-.22,3-3.83,4.47l-.47-.52a5.69,5.69,0,0,0,2.41-1.4,3.74,3.74,0,0,0,1.12-2h-3v-.59Zm-2.88,7.83V40h5.15v3.1Zm4.49-2.52h-3.83v1.94h3.83Zm.65-2.9v1.84h-.66v-4.7h.66v2.28h1.28v.58Z"/><path d="M138.65,41.17a6.68,6.68,0,0,1-1.33-1.37,4.41,4.41,0,0,1-.79-1.42,5.41,5.41,0,0,1-.81,1.52,6.93,6.93,0,0,1-1.31,1.38l-.5-.44a5.3,5.3,0,0,0,1.66-1.8,4.39,4.39,0,0,0,.62-2.22V35.43h.65v1.36a4.19,4.19,0,0,0,.62,2.14,5.15,5.15,0,0,0,1.65,1.73Zm1.66,2.15V34.84H141v8.48Z"/><path d="M38.39,43.68V39.05h1.22v1.38h2.08V39.05H42.9v4.63Zm3.3-2.22H39.61v1.2h2.08Zm-2,6.19V44.43h1.23v2.19h4.92v1Zm5.89-5.27v3H44.36V38.55h1.22v2.8H47v1Z"/><path d="M54.16,44.82q-3.1.2-6.08.19L48,44c.72,0,1.57,0,2.56,0v-.62a2.67,2.67,0,0,1-1.37-.47,1.14,1.14,0,0,1-.48-.94,1.19,1.19,0,0,1,.67-1.07,3.56,3.56,0,0,1,1.8-.39,3.42,3.42,0,0,1,1.78.41,1.18,1.18,0,0,1,.68,1,1.15,1.15,0,0,1-.47.94,2.74,2.74,0,0,1-1.38.48V44c.82,0,1.6,0,2.34-.08Zm-5.9-4.55v-.93h2.27v-.86h1.23v.86H54v.93Zm1.21,7.59V45.35H50.7v1.49h5.12v1Zm1.67-6.42c-.83,0-1.25.18-1.25.54s.42.55,1.25.55a2.29,2.29,0,0,0,.92-.15c.21-.1.32-.23.32-.4C52.38,41.62,52,41.44,51.14,41.44Zm4.55,1.38v2.77H54.46v-7h1.23V41.8h1.36v1Z"/><path d="M49.18,96.91a5.45,5.45,0,0,1-2.52-2.2,4.59,4.59,0,0,1-1,1.34,6.26,6.26,0,0,1-1.49,1.07l-.59-.62a4.6,4.6,0,0,0,1.9-1.29,2.64,2.64,0,0,0,.81-1.72V93H43.89v-.71h2.37V91.07h.8v1.21h2.36V93H47.06v.49a2.41,2.41,0,0,0,.81,1.63,4.21,4.21,0,0,0,1.85,1.14Zm-.46,4.47a4.71,4.71,0,0,1-2.51-.56,1.63,1.63,0,0,1,0-2.9,4.69,4.69,0,0,1,2.51-.56,4.68,4.68,0,0,1,2.5.56,1.63,1.63,0,0,1,0,2.9A4.7,4.7,0,0,1,48.72,101.38Zm0-3.33a3.81,3.81,0,0,0-1.88.37,1.08,1.08,0,0,0-.65,1,1.09,1.09,0,0,0,.65.95,3.93,3.93,0,0,0,1.88.37,3.82,3.82,0,0,0,1.87-.37,1,1,0,0,0,0-1.9A3.84,3.84,0,0,0,48.72,98.05Zm2.37-.9V94.7h-2V94h2V91.17h.81v6Z"/><path d="M58.71,101.53v-4.8H54.39V96H61.6c.08-.85.12-2.07.12-3.67H56v-.72h6.56c0,1.77-.05,3.24-.15,4.39H64v.72h-4.5v4.8Z"/><path d="M12.58,178.11v-.59h3.13v-2.76h.65v2.76h4.09v.59Zm6.41-1.6-.64-.06a22.27,22.27,0,0,0,.16-2.58v-1.33H13.73V172h5.43v1.93A19.89,19.89,0,0,1,19,176.51Z"/><path d="M25.55,171.59c-.05,1.87-1.14,3.36-3.29,4.46l-.48-.5a6,6,0,0,0,2.12-1.45,3.47,3.47,0,0,0,.94-1.93H22.16v-.58Zm2.58,8V177H23.24v-.59h5.54v3.19Zm0-3.66v-2h-1v2h-.65v-4.65h.65v2.09h1v-2.26h.65V176Z"/><path d="M37.35,176.4v-.74h-3.6v-.59h7.86v.59H38v.74a3.34,3.34,0,0,1,1.77.47A1.25,1.25,0,0,1,40.4,178a1.33,1.33,0,0,1-.7,1.17,4,4,0,0,1-2,.42,4,4,0,0,1-2-.42A1.32,1.32,0,0,1,35,178a1.26,1.26,0,0,1,.6-1.08A3.38,3.38,0,0,1,37.35,176.4Zm3.52-2A5.94,5.94,0,0,1,39,173.9a3.22,3.22,0,0,1-1.26-.89,3.19,3.19,0,0,1-1.26.9,6,6,0,0,1-1.89.54l-.38-.6a4.89,4.89,0,0,0,1.9-.41,2.21,2.21,0,0,0,1.23-1H34.67v-.58h2.69v-.79H38v.79H40.7v.58H38.08a2.08,2.08,0,0,0,1.22,1,4.88,4.88,0,0,0,1.9.4ZM37.68,177a3.38,3.38,0,0,0-1.52.26.82.82,0,0,0-.51.74.83.83,0,0,0,.52.76,4.36,4.36,0,0,0,3,0,.85.85,0,0,0,.53-.76.84.84,0,0,0-.52-.74A3.38,3.38,0,0,0,37.68,177Z"/><path d="M47.32,175.56a5.75,5.75,0,0,1-1.16-.87,4.1,4.1,0,0,1-.81-1.06,4.88,4.88,0,0,1-.83,1.19,5.34,5.34,0,0,1-1.19,1l-.46-.46a4.1,4.1,0,0,0,1.52-1.26,2.87,2.87,0,0,0,.62-1.73v-.9h.63v.9a2.57,2.57,0,0,0,.64,1.62,3.79,3.79,0,0,0,1.48,1.13Zm-.12,3.94a3.77,3.77,0,0,1-2.05-.46,1.33,1.33,0,0,1,0-2.37,4.92,4.92,0,0,1,4.11,0,1.34,1.34,0,0,1,0,2.37A3.82,3.82,0,0,1,47.2,179.5Zm0-2.73a3.14,3.14,0,0,0-1.54.31.83.83,0,0,0,0,1.55,3.2,3.2,0,0,0,1.54.31,3.07,3.07,0,0,0,1.53-.31.83.83,0,0,0,0-1.55A3.13,3.13,0,0,0,47.2,176.77Zm1.94-.73v-2.52h-2v-.59h2v-1.78h.66V176Z"/><path d="M51.75,178.31v-.58h3.6v-2H53.08V172h5.2v.58H53.74v2.65h4.68v.59H56v2h3.59v.58Z"/><path d="M31.68,243.58a7,7,0,0,1-1.33-1.37,5,5,0,0,1-.79-1.42,5.21,5.21,0,0,1-.79,1.5,6.75,6.75,0,0,1-1.32,1.39l-.5-.44a5.37,5.37,0,0,0,1.66-1.79,4.5,4.5,0,0,0,.62-2.23v-1.39h.65v1.36a4.15,4.15,0,0,0,.61,2.15,5,5,0,0,0,1.65,1.72Zm1.9-2.3v4.45h-.65v-8.48h.65v3.44h1.47v.59Z"/><path d="M38.09,240.18a1.34,1.34,0,0,1-.86-1.25,1.27,1.27,0,0,1,.7-1.16,4,4,0,0,1,2-.41,4,4,0,0,1,2,.41,1.29,1.29,0,0,1,.7,1.16,1.31,1.31,0,0,1-.87,1.25v1.21h2.11V242H36v-.58h2.11Zm1.83,5.5a4,4,0,0,1-2-.42,1.26,1.26,0,0,1-.7-1.14,1.31,1.31,0,0,1,.7-1.16,4,4,0,0,1,2-.42,4,4,0,0,1,2,.42,1.29,1.29,0,0,1,.7,1.16,1.27,1.27,0,0,1-.69,1.14A4,4,0,0,1,39.92,245.68Zm0-2.58a3.36,3.36,0,0,0-1.52.27.79.79,0,0,0,0,1.49,3.35,3.35,0,0,0,1.52.26,3.38,3.38,0,0,0,1.52-.26.8.8,0,0,0,0-1.49A3.39,3.39,0,0,0,39.92,243.1Zm0-5.18c-1.34,0-2,.34-2,1a.83.83,0,0,0,.5.75,3.25,3.25,0,0,0,1.51.27,3.31,3.31,0,0,0,1.51-.27.83.83,0,0,0,.5-.75C41.93,238.26,41.26,237.92,39.92,237.92Zm-1.17,3.47h2.33v-1a5.57,5.57,0,0,1-1.16.11,5.39,5.39,0,0,1-1.17-.12Z"/><path d="M49.59,243.66a6.47,6.47,0,0,1-1.22-1.27,4.81,4.81,0,0,1-.79-1.42,5.33,5.33,0,0,1-.75,1.42,6.91,6.91,0,0,1-1.29,1.39l-.5-.44a4.87,4.87,0,0,0,1.56-1.73,4.36,4.36,0,0,0,.63-2.15v-.89H45.35V238h4.38v.58H47.88v.85a4,4,0,0,0,.64,2.09A5,5,0,0,0,50,243.16Zm2-2.38v4.45h-.65v-8.48h.65v3.44h1.47v.59Z"/><path d="M57.15,241.85v-.59H65v.59Zm3.93,3.81a4.1,4.1,0,0,1-2-.42,1.26,1.26,0,0,1-.71-1.13A1.28,1.28,0,0,1,59,243a5.33,5.33,0,0,1,4.1,0,1.28,1.28,0,0,1,.72,1.14,1.25,1.25,0,0,1-.72,1.13A4.1,4.1,0,0,1,61.08,245.66Zm-2.61-5.31v-2.86H63.7v.59H59.13v1.68h4.66v.59Zm2.61,2.77a3.64,3.64,0,0,0-1.55.26.77.77,0,0,0,0,1.45,4.58,4.58,0,0,0,3.1,0,.79.79,0,0,0,.52-.72.81.81,0,0,0-.52-.73A3.61,3.61,0,0,0,61.08,243.12Z"/><path d="M66.15,241.2v-.58H72c0-.56.08-1.38.08-2.48H67.46v-.59h5.29c0,1.38,0,2.4-.09,3.07H74v.58Zm1.35,4.33v-3.42h.65v1.19h3.91v-1.19h.65v3.42Zm4.56-1.65H68.15v1.06h3.91Z"/><path d="M153.61,217.44v-3.22h-1.74v-.59h1.74v-1.79H152.1a7.09,7.09,0,0,1-2.89,3.85l-.52-.45a5.72,5.72,0,0,0,2-1.93,5.55,5.55,0,0,0,1-2.76h-2.51V210h3.21a6.37,6.37,0,0,1-.16,1.28h1.37v-1.85h.64v8Zm1.55.28v-8.48h.66v8.48Z"/><path d="M162.21,213.65a5.16,5.16,0,0,1-1.16-.87,3.69,3.69,0,0,1-.81-1.06,4.51,4.51,0,0,1-.84,1.19,4.79,4.79,0,0,1-1.18,1l-.46-.45a4,4,0,0,0,1.52-1.27,2.84,2.84,0,0,0,.62-1.73v-.22H158v-.58h4.37v.58h-1.87v.22a2.54,2.54,0,0,0,.64,1.62,3.72,3.72,0,0,0,1.48,1.13Zm-.13,3.94a3.92,3.92,0,0,1-2.05-.45,1.34,1.34,0,0,1,0-2.38,4.92,4.92,0,0,1,4.11,0,1.34,1.34,0,0,1,0,2.38A3.87,3.87,0,0,1,162.08,217.59Zm0-2.72a3.14,3.14,0,0,0-1.53.3.9.9,0,0,0-.54.78.88.88,0,0,0,.54.77,3,3,0,0,0,1.53.31,3.21,3.21,0,0,0,1.54-.3.84.84,0,0,0,0-1.56A3.18,3.18,0,0,0,162.08,214.87Zm1.95-.73v-2.41h-2v-.58h2v-1.91h.66v4.9Z"/><path d="M279.08,242.41v-.59h3.34v-1.08h.65v1.08H287v.59Zm1.09-1.86-.13-.61,5.14-.18V239h-4.78v-.56h5.43a26.53,26.53,0,0,1-.11,2.92l-.63,0c0-.18,0-.52.06-1Zm.21,6v-2H285v-.8h-4.63v-.57h5.27v1.94H281v.81h4.85v.58Z"/><path d="M295.14,242.84a3.91,3.91,0,0,1-1-.83,4.33,4.33,0,0,1-.69-1,3.77,3.77,0,0,1-.66,1.12,4.47,4.47,0,0,1-1,.95l-.48-.46a3.35,3.35,0,0,0,1.31-1.2,3,3,0,0,0,.52-1.68v-1.11h.64v1.11a2.66,2.66,0,0,0,.51,1.55,3.19,3.19,0,0,0,1.27,1.08Zm-2,3.58v-2.66h.66v2.07h4.89v.59Zm3.15-2.33v-3.36h-1.43v-.58h1.43v-1.73h.65v5.67Zm1.51.22v-6.06h.66v6.06Z"/><path d="M301.68,242v2.08h1a23.32,23.32,0,0,0,2.8-.11l.05.57c-.45,0-.93.09-1.45.1l-3.08,0V239h4.06v.59h-3.4v1.85h2.48V242Zm4.88,4.75V242.4h-1.67v-.58h1.67v-3.57h.65v8.48Z"/><path d="M322.86,140.44v1.92h.4a29.36,29.36,0,0,0,3.41-.12l.05.56a14.29,14.29,0,0,1-1.54.11l-3,0v-5.45h4v.58h-3.3v1.8h3.08v.58Zm5.33.2v4.57h-.66v-8.48h.66V140h1.43v.6Z"/><path d="M335.29,143.06a7,7,0,0,1-1.33-1.37,4.82,4.82,0,0,1-.79-1.42,5.21,5.21,0,0,1-.79,1.5,7.09,7.09,0,0,1-1.32,1.4l-.5-.44a5.27,5.27,0,0,0,1.65-1.8,4.4,4.4,0,0,0,.62-2.23v-1.38h.66v1.35a4.22,4.22,0,0,0,.61,2.16,5.09,5.09,0,0,0,1.65,1.71Zm1.9-2.3v4.45h-.66v-8.48h.66v3.45h1.47v.58Z"/><path d="M220.78,19.42v-.58h7.87v.58Zm6.54-5.63h-4.54v2.64h4.68V17h-5.34V13.21h5.2Z"/><path d="M229.78,17.84v-.58h3.6v-1h-2.27V14.18h4.56v-.91h-4.56v-.58h5.22v2.05h-4.57v.94h4.77v.59h-2.48v1h3.6v.58Zm1.3,2.9V18.41h.66v1.74h4.79v.59Z"/><path d="M242,16.72v-.59h3.34V14.42h.64v1.71h3.88v.59Zm3.91,4a3.86,3.86,0,0,1-2-.45,1.35,1.35,0,0,1-.71-1.18,1.37,1.37,0,0,1,.71-1.19,4.85,4.85,0,0,1,4.08,0,1.37,1.37,0,0,1,.71,1.19,1.35,1.35,0,0,1-.71,1.18A3.86,3.86,0,0,1,245.86,20.76Zm2.8-8.09a25.36,25.36,0,0,1-.11,2.84l-.63,0c.06-.62.08-1.36.08-2.21h-4.68v-.59Zm-2.8,5.38a3.1,3.1,0,0,0-1.51.3.84.84,0,0,0,0,1.56,3.31,3.31,0,0,0,1.52.29,3.25,3.25,0,0,0,1.52-.29.87.87,0,0,0,.54-.78.88.88,0,0,0-.54-.78A3.15,3.15,0,0,0,245.86,18.05Z"/><path d="M253.07,20.88V17.75H251v-.59h7.86v.59h-2.12v3.13H256V17.75h-2.3v3.13Zm1.81-4.69a3.6,3.6,0,0,1-2-.49,1.58,1.58,0,0,1,0-2.66,3.42,3.42,0,0,1,2-.51,3.48,3.48,0,0,1,2,.51,1.53,1.53,0,0,1,.72,1.33,1.52,1.52,0,0,1-.72,1.32A3.56,3.56,0,0,1,254.88,16.19Zm0-3.09a2.78,2.78,0,0,0-1.5.34,1.06,1.06,0,0,0,0,1.85,3.5,3.5,0,0,0,3,0,1.07,1.07,0,0,0,0-1.85A2.79,2.79,0,0,0,254.88,13.1Z"/><path d="M199,115.86v-4.35h.79v1.61H203v-1.61h.79v4.35Zm4-2h-3.17v1.35H203Zm-2.77,7.57v-2.55h5.53V117.7h-5.53V117h6.32v2.52H201v1.17h5.82v.71Zm6.32-7v2h-.79v-5.27h.79v2.52h1.56v.72Z"/><path d="M209.39,116.71V116h4.4v-1.52h.82V116H219v.73Zm8.69-1.84a6.52,6.52,0,0,1-2.34-.81,4.26,4.26,0,0,1-1.53-1.3,4.34,4.34,0,0,1-1.52,1.28,6.52,6.52,0,0,1-2.32.82l-.47-.65a5.46,5.46,0,0,0,2.77-.95c.75-.53,1.13-1.06,1.13-1.57v-.31h.8v.31c0,.52.37,1,1.13,1.59a5.42,5.42,0,0,0,2.77.94Zm-3.88,6.54a4.86,4.86,0,0,1-2.47-.52,1.59,1.59,0,0,1,0-2.82,6.19,6.19,0,0,1,4.92,0,1.57,1.57,0,0,1,.86,1.4,1.59,1.59,0,0,1-.86,1.42A4.84,4.84,0,0,1,214.2,121.41Zm0-3.17a4.26,4.26,0,0,0-1.86.32,1,1,0,0,0,0,1.83,4.11,4.11,0,0,0,1.85.33,4.16,4.16,0,0,0,1.85-.33,1,1,0,0,0,.64-.92,1,1,0,0,0-.63-.91A4.29,4.29,0,0,0,214.2,118.24Z"/><path d="M285.75,57.84v-.59h7.87v.59Zm6.53-5.64h-4.54v2.64h4.68v.59h-5.34V51.62h5.2Z"/><path d="M294.75,56.25v-.58h3.6v-1h-2.28V52.59h4.56v-.91h-4.56V51.1h5.22v2.06h-4.57v.93h4.77v.59H299v1h3.6v.58Zm1.29,2.9V56.82h.66v1.74h4.8v.59Z"/><path d="M312.37,55.6c-.4,0-1.23.07-2.51.1s-2.25,0-2.94,0l-.06-.58c.75,0,1.45,0,2.09,0V53.26h.65v1.87c1.09,0,2-.05,2.73-.09Zm-.58-4.2a25.49,25.49,0,0,1-.14,3l-.63,0a23,23,0,0,0,.12-2.33h-3.57V51.4ZM308.35,59V56.57H309v1.86h4.86V59Zm5.29-4.47v2.6H313V50.83h.65V54h1.28v.59Z"/><path d="M316.55,57.48V54.11h3.23v-2h-3.23v-.59h3.88v3.11h-3.22v2.21a26.36,26.36,0,0,0,4-.18l.07.57A34.32,34.32,0,0,1,316.55,57.48Zm5.66,1.82V50.83h.66V59.3Z"/><path d="M413,32.67a1.64,1.64,0,0,1-1.6,1.31,1.52,1.52,0,0,1-1.36-.77,4.16,4.16,0,0,1-.47-2.17,4.19,4.19,0,0,1,.47-2.17,1.51,1.51,0,0,1,1.36-.76A1.63,1.63,0,0,1,413,29.37h1.27v-1.6h.65V36h-.65V32.67Zm-1.6-4q-1.2,0-1.2,2.34t1.2,2.34c.79,0,1.19-.78,1.19-2.34S412.15,28.7,411.36,28.7Zm1.75,3.4h1.11V30H413.1a6.5,6.5,0,0,1,.09,1.09A6.73,6.73,0,0,1,413.11,32.1Zm2.64,4V27.6h.66v8.47Z"/><path d="M422.68,32a5.83,5.83,0,0,1-1.16-.87,4.27,4.27,0,0,1-.83-1.05,4,4,0,0,1-.81,1.16,4.87,4.87,0,0,1-1.21,1l-.48-.45a4.3,4.3,0,0,0,1.56-1.28,2.9,2.9,0,0,0,.61-1.74v-.88H421v.88a2.56,2.56,0,0,0,.63,1.63,3.88,3.88,0,0,0,1.5,1.15Zm-.47,4a3.71,3.71,0,0,1-2-.46,1.34,1.34,0,0,1,0-2.37,4.85,4.85,0,0,1,4.08,0,1.36,1.36,0,0,1,.72,1.18,1.39,1.39,0,0,1-.72,1.2A3.86,3.86,0,0,1,422.21,36Zm0-2.73a3.19,3.19,0,0,0-1.53.3.88.88,0,0,0-.53.78.9.9,0,0,0,.54.8,3.16,3.16,0,0,0,1.52.29,3.19,3.19,0,0,0,1.53-.3.83.83,0,0,0,0-1.56A3.07,3.07,0,0,0,422.21,33.27Zm2.62-2.76v2h-.66V27.6h.66v2.32h1.27v.59Z"/><path d="M434.64,32.66v1.93H434V32.66h-3.63v-.58h7.87v.58Zm-3.05,3.16V33.39h.66v1.85h4.87v.58Zm.07-4.75V27.82h.66v1.1h3.92v-1.1h.65v3.25Zm4.58-1.57h-3.92v1h3.92Z"/><path d="M443.92,32.05a5.75,5.75,0,0,1-1.16-.87,4.1,4.1,0,0,1-.81-1.06,4.53,4.53,0,0,1-.83,1.19,4.92,4.92,0,0,1-1.19,1l-.46-.45A4.11,4.11,0,0,0,441,30.54a2.83,2.83,0,0,0,.61-1.72v-.95h.64v.95a2.55,2.55,0,0,0,.63,1.62,3.57,3.57,0,0,0,1.48,1.13Zm1.73,4V33.55h-4.86V33h5.52v3.11Zm0-3.59V30h-2v-.59h2V27.6h.66v4.88Z"/><path d="M414.83,108.53v-.59h7.87v.59Zm6.54-5.64h-4.54v2.64h4.68v.59h-5.34v-3.81h5.2Z"/><path d="M423.83,106.94v-.58h3.6v-1h-2.27v-2.09h4.56v-.91h-4.56v-.58h5.22v2.06h-4.57v.93h4.77v.59H428.1v1h3.6v.58Zm1.3,2.9v-2.33h.66v1.74h4.79v.59Z"/><path d="M436,106.41v-.58h3.6v-1h-2.26v-3.17H438v1h3.89v-1h.65v3.17h-2.26v1h3.6v.58Zm5.92,3.58v-2.14h-4.8v-.59h5.45V110Zm0-6.74H438v1h3.89Z"/><path d="M448.53,110v-3.92H445v-.59h5.89c.07-.7.1-1.7.1-3h-4.71v-.58h5.37c0,1.45,0,2.64-.12,3.59h1.34v.59h-3.69V110Z"/></svg>