<svg id="Layer_2" data-name="Layer 2" xmlns="http://www.w3.org/2000/svg" viewBox="0 0 492.1 273.2"><defs><style>.cls-1{fill:#fff;}.cls-2,.cls-3,.cls-4,.cls-7{fill:none;}.cls-3,.cls-4,.cls-5,.cls-6,.cls-7{stroke:#000;stroke-linecap:round;stroke-linejoin:round;}.cls-3{stroke-width:0.86px;}.cls-4{stroke-width:2px;}.cls-5{stroke-width:0.03px;}.cls-6{fill:#f2f2f2;stroke-width:0.75px;}.cls-7{stroke-width:0.37px;}</style></defs><title>OJ103614612</title><g id="background"><rect class="cls-1" width="492.1" height="273.2"/></g><g id="shape3-1"><path id="path8" class="cls-2" d="M38.92,215.6c0-16.4,25.3-29.6,56.6-29.6s56.6,13.3,56.6,29.7-25.3,29.6-56.6,29.6S38.92,231.9,38.92,215.6Z"/></g><path id="path15" class="cls-3" d="M38.92,215.6c0-16.4,25.3-29.6,56.6-29.6s56.6,13.3,56.6,29.7-25.3,29.6-56.6,29.6-56.6-13.4-56.6-29.7"/><g id="shape6-7"><path id="path22" class="cls-2" d="M175.47,38.27c0-16.4,31.5-29.6,70.3-29.6s70.3,13.3,70.3,29.7S284.57,68,245.77,68,175.47,54.57,175.47,38.27Z"/></g><path id="path29" class="cls-3" d="M175.47,38.27c0-16.4,31.5-29.6,70.3-29.6s70.3,13.3,70.3,29.7S284.57,68,245.77,68s-70.3-13.4-70.3-29.7"/><g id="shape9-13"><path id="path36" class="cls-2" d="M358.49,137.11c0-20.5,23.1-37.2,51.6-37.2s51.6,16.6,51.6,37.2-23.1,37.2-51.6,37.2S358.49,157.71,358.49,137.11Z"/></g><g id="shape15-15"><path id="path41" class="cls-2" d="M241.07,231.67c0-17.7,26.3-32,58.7-32s58.7,14.3,58.7,32-26.3,32-58.7,32S241.07,249.37,241.07,231.67Z"/></g><g id="shape18-17"><path id="path46" class="cls-2" d="M43,33.53c0-10.7,19.3-19.3,43-19.3s43,8.7,43,19.3-19.2,19.3-43,19.3S43,44.13,43,33.53Z"/></g><path id="path53" class="cls-3" d="M43,33.53c0-10.7,19.3-19.3,43-19.3s43,8.7,43,19.3-19.2,19.3-43,19.3-43-8.7-43-19.3"/><g id="shape22-24"><path id="path62" class="cls-2" d="M35.48,99.82c0-10.8,17-19.5,38.1-19.5s38.1,8.8,38.1,19.5-17,19.5-38.1,19.5S35.48,110.62,35.48,99.82Z"/></g><path id="path69" class="cls-3" d="M35.48,99.82c0-10.8,17-19.5,38.1-19.5s38.1,8.8,38.1,19.5-17,19.5-38.1,19.5-38.1-8.7-38.1-19.5"/><g id="shape26-30"><path id="path76" class="cls-4" d="M222.24,97.94,245.94,68"/></g><g id="shape29-33"><path id="path81" class="cls-4" d="M359.05,137.66l-64-.5"/></g><g id="shape30-36"><path id="path86" class="cls-4" d="M298.06,60.73l76,50.3"/></g><g id="shape38-39"><path id="path91" class="cls-4" d="M186.58,163.8l-51.1,31"/></g><g id="shape39-42"><path id="path96" class="cls-4" d="M152.26,215.76l89,16.2"/></g><g id="shape40-45"><path id="path101" class="cls-4" d="M73.54,119.55l21.9,66.5"/></g><g id="shape41-48"><path id="path106" class="cls-4" d="M129.24,33.7l46.4,4.8"/></g><g id="shape42-51"><path id="path111" class="cls-2" d="M168,136.71c0-20.8,28.4-37.6,63.4-37.6s63.4,16.8,63.4,37.6-28.4,37.6-63.4,37.6S168,157.51,168,136.71Z"/></g><path id="path118" class="cls-3" d="M168,136.71c0-20.8,28.4-37.6,63.4-37.6s63.4,16.8,63.4,37.6-28.4,37.6-63.4,37.6-63.4-16.8-63.4-37.6"/><g id="shape45-57"><path id="path125" class="cls-5" d="M454.69,21.83l-3.3.8-.2-.8,3.4-.8Zm-5.8,1.4-3.3.8-.2-.8,3.4-.8Zm-5.8,1.4-3.4.8-.2-.8,3.3-.8Zm-5.9,1.4-3.3.8-.2-.8,3.3-.8Zm-5.8,1.4-3.4.8-.2-.8,3.3-.8Zm-5.9,1.5-1.1.3h0l-2.2.6L422,29l2.2-.6,1.1-.3Zm-5.8,1.5-3.3.8-.2-.8,3.3-.8Zm-5.9,1.4-3.3.9-.2-.8,3.3-.9Zm-5.8,1.5-3.3.9-.2-.8,3.3-.9Zm-5.8,1.6-3.3.9-.2-.8,3.3-.9Zm-5.8,1.6-.7.2h0l-2.6.8-.3-.8,2.6-.8.7-.2Zm-5.8,1.6-1.6.5h0l-1.7.5-.3-.8,1.7-.5,1.6-.5Zm-5.8,1.7-2.3.7h0l-.9.3-.3-.8,1-.3,2.3-.7Zm-5.7,1.8-2.8.9h0l-.5.1-.3-.8.5-.2,2.8-.9Zm-5.8,1.8-3,1h0l-.2.1-.3-.8.2-.1,3-1Zm-5.7,2-3,1h0l-.3.1-.3-.8.3-.1,3-1Zm-5.6,2-2.6,1h0l-.6.2-.3-.8.6-.3,2.6-1Zm-5.6,2.3-2,.8h0l-1.2.5-.3-.8,1.2-.5,2-.8Zm-5.5,2.4-1,.5h0l-2.1,1-.4-.8,2.1-1,1-.5Zm-5.4,2.5-3.1,1.5-.4-.8,3.1-1.5Zm-5.5,2.6-1.7.8h0l-1.4.7-.4-.8,1.4-.7,1.7-.8Zm-5.3,2.6-2.5,1.3h0l-.6.3-.4-.8.6-.3,2.5-1.3Zm-5.2,2.9-2.3,1.5h0l-.5.4-.5-.7.6-.4,2.3-1.6Zm-4.8,3.6-1.5,1.5h0l-.9,1-.6-.6.9-1,1.5-1.5Zm-3.8,4.5-.8,1.2v-.1l-.9,1.8-.8-.3.9-1.8.8-1.2Zm-2.6,5.3-.4,1.2h0l-.5,2.1-.9-.2.5-2.1.5-1.2Zm-1.5,5.8-.4,2.3h0l-.1,1-.8-.1.1-1.1.4-2.3Zm-.8,5.9-.1.5h0l-.2,2.3h0v.6l-.9-.1.1-.6.2-2.3v-.5Zm-.6,6-.2,2h0v1.4h-.9l.1-1.5.1-1.9Zm-.4,6-.1,3.4H314l.1-3.4Zm-.2,6-.1,3.4h-.9l.1-3.4Zm-.1,6v3.4h-.9v-3.4Zm0,6v.3h0l.1,3.1h-.9l-.1-3.1v-.3Zm.2,6v1.6h0l.1,1.9h-.9l-.1-1.8v-1.6Zm.3,6,.2,3h0v.4h-.8v-.4l-.2-3.1Zm.5,5.9.3,3.4-.9.1-.3-3.4Zm.6,6,.5,3.4-.9.1-.5-3.4Zm.8,6v.3h0l.6,3.1-.8.1-.6-3.1v-.3Zm1.1,5.9.3,1.8h0l.4,1.6-.8.2-.4-1.6-.3-1.8Zm1.3,5.8.8,3.2h0l.1.2-.8.2-.1-.2-.8-3.2Zm1.6,5.8,1,3.3-.8.3-1-3.3Zm1.9,5.7,1.3,3.2-.8.3-1.3-3.2Zm2.2,5.5,1.6,3.1-.8.4-1.6-3.1Zm2.8,5.3.2.3h0l1.6,2.6-.7.5-1.6-2.6-.2-.3Zm3.2,5,.5.8h0l1.6,2-.7.5-1.6-2-.5-.8Zm3.9,4.6.9.9h0l1.6,1.5-.6.6-1.7-1.5-.9-.9Zm4.4,4,1.2,1h0l1.5,1.1-.5.7-1.5-1.1-1.2-1Zm4.8,3.6,1.7,1.2h0l1.1.6-.4.8-1.1-.7-1.8-1.3Zm5,3.2,2.6,1.5h-.1l.5.2-.4.8-.5-.2-2.5-1.5Zm5.3,2.7,3.1,1.5-.4.8-3.1-1.5Zm5.4,2.6,3.2,1.3-.3.8-3.2-1.3Zm5.6,2.2,3.3,1.1-.3.8-3.3-1.1Zm5.7,2,1,.3h0l2.3.7-.3.8-2.3-.7-1-.3Zm5.7,1.8,2.8.8h0l.5.1-.2.8-.5-.1-2.8-.8Zm5.8,1.6,3.3.9-.2.8-3.3-.9Zm5.8,1.5,3.4.8-.2.8-3.4-.8Zm5.9,1.3,1.6.3h0l1.8.3-.2.8-1.8-.3-1.6-.3Zm5.9,1.2,3.4.7-.2.8-3.4-.7Zm5.9,1.1,3.4.6-.2.9-3.4-.6Zm5.9,1,1.1.2h0l2.3.3-.1.8-2.3-.4-1.1-.2Zm6,1,3.4.5-.1.9-3.4-.5Zm5.9.9,3.4.5-.1.9-3.4-.5Zm6,.8,3.4.5-.1.9-3.4-.5Zm5.9.8,3.4.5-.1.8-3.4-.5Zm6,.8,3.4.4-.1.9-3.4-.4Zm6,.8,3.4.4-.1.9-3.4-.4Zm5.9.7,3.4.4-.1.9-3.4-.4Z"/></g><g id="shape46-59"><path id="path130" class="cls-5" d="M316.19,77.29l-3.4.7-.2-.8,3.4-.7Zm-5.9,1.2-3.4.7-.2-.8,3.4-.6Zm-5.9,1.1-3.4.6-.1-.8,3.4-.6Zm-6,1.1-3.4.5-.1-.9,3.4-.5Zm-5.9.9-3.4.4-.1-.9,3.4-.4Zm-6,.7-3.4.3-.1-.9,3.4-.3Zm-6,.6-.9.1-2.5.2-.1-.9,2.5-.2h0l.9-.1Zm-6,.5-2.6.1-.9.1v-.9l.9-.1h0l2.6-.1Zm-6,.3h-.6l-2.8.1V83l2.8-.1h.6Zm-6,.3-3.4.2-.1-.9,3.4-.2Zm-6,.4-2.6.2h0l-.9.1-.1-.9.9-.1,2.6-.2Zm-6,.5-1.9.2h0l-1.5.2-.1-.8,1.5-.2,1.9-.2Zm-6,.7-1.6.2-1.8.2-.1-.9,1.8-.2,1.6-.2Zm-6,.7-1.5.2-1.9.2-.1-.8,2-.2,1.4-.2Zm-6,.6-1.5.2-1.9.2-.1-.9,1.9-.2h0l1.5-.2Zm-6,.6-1.6.1-1.8.2-.1-.9,1.8-.1h0l1.6-.2Zm-6,.5-1.8.1-1.7.1v-.9l1.7-.1h0l1.8-.2Zm-6,.4-1.9.1H211v-.9h1.5l1.9-.1Zm-6,.1h-3.4v-.9h3.4Zm-6.1-.1-1.8-.1-1.7-.1.1-.9,1.7.2h0l1.7.1Zm-6-.5-1.5-.1-2-.3.1-.8,2,.3h0l1.4.1Zm-6-.9-.9-.1-2.5-.7.2-.8,2.5.6h0l.9.1Zm-5.9-1.4h0l-3.3-1.2.3-.8,3.2,1.2h0Zm-5.6-2.3-3-1.7.4-.8,3,1.7Zm-5.2-3.2-2-1.5-.8-.7.6-.7.7.7h0l2,1.5Zm-4.6-3.9-.9-.8-1.5-1.7.6-.6,1.5,1.7h0l.9.8Zm-4.1-4.5h0l-2.1-2.8.7-.5,2,2.7h0Zm-3.6-4.9-1.9-2.9.7-.5,1.9,2.9Zm-3.2-5.1-1.7-3,.8-.4,1.7,3Zm-2.8-5.3-1.3-2.7-.2-.4.8-.3.2.4h0l1.3,2.7Zm-2.5-5.5-1-2.4-.3-.8.8-.3.3.8h0l1.1,2.4Zm-2.3-5.6-.9-2.3-.3-1,.8-.3.4.9h0l.9,2.3Zm-2.1-5.7-.8-2.2-.3-1,.8-.3.3,1h0l.8,2.3Zm-1.8-5.7-.8-2.3-.3-.9.8-.2.3.9h0l.7,2.3Zm-1.8-5.8-.8-2.5-.2-.8.8-.2.2.8h0l.7,2.5Zm-1.6-5.8-.9-3.3.8-.2.9,3.3Zm-1.6-5.8-.9-3.1v-.2l.8-.2v.2h0l.9,3.1Zm-1.6-5.8-.8-3.3.8-.2.8,3.3Zm-1.4-5.8-.9-3.3.8-.2.9,3.3Z"/></g><g id="shape47-61"><path id="path135" class="cls-5" d="M320.33,167l-3.4.5-.1-.9,3.4-.5Zm-6,.9-3.4.5-.1-.9,3.4-.5Zm-6,.9-3.4.5-.1-.9,3.4-.5Zm-5.9.9-3.4.5-.1-.9,3.4-.5Zm-6,.9-3.4.6-.1-.9,3.4-.6Zm-5.9,1-3.4.6-.1-.9,3.4-.6Zm-5.9,1.1-3.4.7-.2-.9,3.4-.6Zm-5.9,1.1-3.3.6h-.1l-.2-.9h.1l3.3-.7Zm-5.9,1.2-2.5.5h0l-.9.2-.2-.9.9-.2,2.5-.5Zm-5.9,1.3-1.6.4h0l-1.8.5-.2-.8,1.8-.5,1.6-.4Zm-5.8,1.5-.5.1h0l-2.8.8-.2-.8,2.8-.8.5-.1Zm-5.8,1.7-3.3,1.1-.3-.8,3.3-1.1Zm-5.6,1.9-1.9.7h0l-1.3.6-.3-.8,1.3-.5,1.9-.7Zm-5.6,2.3h0l-3.1,1.5-.4-.8,3-1.5h.1Zm-5.3,2.7-1.4.8h0l-1.6,1-.5-.7,1.6-1,1.4-.8Zm-5,3.3-1.7,1.3h0l-.9.8-.6-.6.9-.9,1.8-1.3Zm-4.4,3.9-1.6,1.6h0l-.8.9-.7-.5.8-.9,1.6-1.7Zm-3.9,4.6-1.1,1.6h0l-.8,1.2-.7-.5.8-1.2,1.2-1.6Zm-3.1,5-1.6,3.1-.8-.4,1.6-3.1Zm-2.7,5.4-1.3,3.2-.8-.3,1.3-3.2Zm-2.3,5.5-1.2,3.2-.8-.3,1.2-3.2Zm-2.1,5.6-1.1,2.9h0l-.1.3-.8-.3.1-.3,1.1-2.9Zm-2.1,5.7v0l-.9,3.3-.8-.2.9-3.2.1-.1Zm-1.5,5.8-.3,1.1h0l-.5,2.3-.7-.3.5-2.3.2-1.1Zm-1.2,5.8-.5,3.4-.8-.1.5-3.4Zm-.9,5.9-.2.9h0l-.2,2.6-.8-.1.3-2.5.1-.9Zm-.7,6-.3,2.7h0l-.1.7-.9-.1.1-.7.3-2.8Zm-.7,6v.5h0l-.3,3-.9-.1.3-3v-.5Zm-.5,6-.1,1.1-.2,2.3-.9-.1.2-2.3.1-1.1Zm-.4,5.9v.1l-.1,1.7h0V270h-1v-.1l.1-.3h0v-.5h0v-.7l.1-1.7h0v-.1Z"/></g><g id="shape48-63"><path id="path140" class="cls-5" d="M103.94,128.82l3.4.3-.1.9-3.4-.4Zm6,.6,3.4.4-.1.9-3.4-.5Zm6,.8,3.1.5h.3l-.2.8-.3-.1h0l-3.1-.5Zm5.9,1.1,2.4.5,1,.3-.2.8-1-.3h0l-2.4-.5Zm5.9,1.5,1.9.5,1.4.5-.3.8-1.4-.5h0l-1.9-.5Zm5.7,1.9,1.7.7,1.5.6-.3.8-1.5-.6h0l-1.7-.6Zm5.6,2.4,1.9.9,1.2.6-.4.8-1.2-.6h0l-1.9-.9Zm5.3,2.8,2.6,1.5.4.2-.5.7-.4-.2h0l-2.6-1.5Zm5.2,3.1.7.4,2.2,1.5-.5.7-2.2-1.5h0l-.6-.4Zm5,3.5,2.7,2,.1.1-.5.7v-.1h0l-2.7-2Zm4.8,3.6,1.6,1.2,1.1.9-.5.7-1.1-.9h0l-1.6-1.2Zm4.8,3.7.7.6,2,1.6-.5.7-2-1.6h0l-.7-.6Zm4.7,3.7,2.6,2.2-.5.7-2.6-2.2Zm4.6,3.9,2.6,2.2-.5.7-2.6-2.2Zm4.5,4,2.6,2.3-.6.7-2.6-2.3Zm4.5,4,1.8,1.6.8.7-.6.6-.8-.7h0l-1.8-1.6Zm4.5,4,.9.9,1.6,1.5-.6.6-1.6-1.5h0l-.9-.9Zm4.3,4.2h0l2.4,2.4-.6.6-2.4-2.4h0Zm4.2,4.3,1.9,2,.5.5-.7.6-.5-.5h0l-1.9-2Zm4.1,4.5.4.5,1.9,2.1-.7.5-1.8-2.2h0l-.4-.5Zm3.8,4.7.8,1.1,1.1,1.8-.8.5-1.1-1.8h0l-.8-1Zm3.2,5.1.8,1.5.7,1.7-.8.3-.7-1.7h0l-.7-1.5Zm2.4,5.6.6,1.6.5,1.7-.8.2-.5-1.7h0l-.6-1.6Zm1.8,5.8.3,1.3.4,2-.8.2-.4-2h0l-.3-1.3Zm1.2,5.9.1.4.3,2.3.1.8-.9.1-.1-.8h0l-.3-2.2h0l-.1-.4Zm.6,6v.4l.1,1.4v1.6h-.8v-.6h0v-1h0l-.1-1.4h0l-.1-.4Z"/></g><path id="path145" class="cls-3" d="M138.6.7c-66.8-1.6-61.3,3-83.2,9.6S16.3,18,7.3,40.3.4,112.1,1.5,144s-5,67.6,12.3,87.5,25.6,27.3,91.7,32.4,242.6,18,304.9-1.8,61.3-76.6,68.9-116.9S512.6,44,455.9,19.9,205.3,2.4,138.6.7"/><ellipse id="ellipse183" class="cls-6" cx="407.08" cy="136.44" rx="44.5" ry="33.8"/><ellipse id="ellipse194" class="cls-6" cx="287.52" cy="233.19" rx="44.5" ry="33.8"/><rect id="rect212" class="cls-2" x="316.69" y="234.39" width="126.9" height="20"/><g id="g11"><g id="shape4-1"><path id="path8-2" class="cls-7" d="M1.36,73.53l3.32-.43.1,1-3.32.43Zm5.85-.75,3.32-.43.1,1-3.32.43Zm6-.76,2.44-.32.88-.11.1,1-.88.11h0L13.26,73ZM19,71.38,22.33,71l.1,1-3.32.43Zm5.85-.75,3.31-.33.1,1L25,71.59ZM30.82,70l3.31-.32.1,1L30.82,71Zm5.85-.53,1.27-.11L40,69.12l.09,1-2,.21h0l-1.27.11Zm5.95-.54L46,68.59l.1.86-3.32.32Zm5.85-.43,3.42-.22v1l-3.42.22Zm6-.43,3.32-.22v1L54.32,69Zm5.85-.32,2.83-.22h.59v1H63.1l-2.83.21Zm5.95-.33,1.66-.1h1.76v1l-1.76.11-1.66.11Zm6-.21.69-.11L75.49,67v1l-2.63.11h-.69ZM78,66.87h.09l3.32-.11v1l-3.32.1H78Zm6-.22,3.41-.11v1L84,67.62Zm6-.11,3.41-.1v1l-3.41.11Zm5.85-.21,3.41-.11v1l-3.41.11Zm6-.11,3.41-.11v1l-3.31.11Zm6-.21h3.41v1l-3.41.11Zm5.85,0h3.41v1h-3.41Zm6-.11h3.41v1h-3.41Zm6,0h3.41v1h-3.41Zm5.85.11h3.42v1h-3.42Zm5.95.1h.88l2.54.11-.1,1L138,67.08h-.78Zm6,.33,2.64.21h.78l-.1,1-.78-.11h0l-2.64-.11Zm5.95.43,2.73.32.59.11-.1,1-.68-.1h0l-2.73-.33Zm5.85.86,1.56.32,1.76.43-.19,1L156.35,69h0l-1.56-.33Zm5.86,1.61,1,.43,1.37.64L164,71l-.39.86-.78-.43h0l-1.37-.65h0l-1-.43Zm5.36,3,1.17.86,1.46,1.5-.58.65-1.46-1.51h0L165.71,73Zm4.39,4.29,1.85,1.72h0l.69.65-.49.75-.78-.64L170.1,77.4Zm4.49,4.3,1.46,1.4.88,1.07.1.11-.69.54-.1-.11h0l-.87-1.07H176l-1.46-1.4Zm3.61,5.38.19.86v1.39l-.39,1.4-.1.21-.78-.43.1-.21v.11l.29-1.29V87.28l-.19-.86ZM177,92.66l-.3.32-1.56,1.61-.78.65-.48-.76.78-.64h0l1.56-1.51h-.1l.29-.32Zm-4.68,4.08-1.56,1.07-1.27.86-.39-.75,1.26-.86h0L172,96Zm-5.08,3.44-2.82,1.72-.2.1-.39-.85.19-.11h0l2.83-1.72ZM162,103.29l-1.37.86-1.66,1-.39-.86,1.66-1h0l1.37-.75Zm-5.17,3-.1.11-2.93,1.51-.39-.86,2.83-1.51h0l.2-.11Zm-5.37,2.9-3,1.62-.39-.86,3-1.61Zm-5.36,2.8L143,113.5l-.39-.86,3.12-1.5Zm-5.46,2.58-3,1.39h-.1l-.29-.86h0l3-1.39Zm-5.47,2.47-2.82,1.29-.3.11-.29-.86.29-.11h0l2.83-1.29Zm-5.46,2.36-3.22,1.29-.29-.86,3.22-1.29Zm-5.56,2.26-2.63,1.07-.59.22-.29-.86.59-.22h0l2.63-1.07Zm-5.66,2.26-2.53,1-.68.22-.3-.86.69-.22h0l2.53-1Zm-5.56,1.93-2.43.86-.78.22-.2-.86.78-.22h0l2.44-.86Zm-5.75,1.83-2.24.75-1.08.32-.19-.86,1.07-.32h0l2.25-.75Zm-5.75,1.72-2,.53-1.36.33-.2-.86,1.37-.33h0l1.85-.53Zm-5.76,1.39-2,.43-1.37.22-.19-.86,1.36-.22h0l2-.43ZM89.83,132l-2.73.53-.59.11-.1-.86.59-.11h0l2.73-.53ZM84,133h-.49l-2.93.43-.1-.86,2.93-.43h0l.49-.1Zm-5.86.86-3.41.43-.1-1,3.32-.43Zm-5.85.75h-.1l-3.31.43-.1-1,3.32-.32h.09Zm-6,.65-2.24.21-1.17.11v-1l1.07-.1h0l2.24-.22Zm-5.85.64-3.41.33-.1-.86,3.41-.33Zm-5.95.54-3.32.32-.09-1,3.41-.33Zm-5.85.54-.88.11-2.44.21v-1l2.44-.21h0l.88-.11Zm-6,.43-3,.21H39.3v-1h.39l3-.22Zm-5.85.43-3.42.21v-1l3.42-.22Zm-5.95.43-2.54.21-.88.11v-1h.88l2.44-.21Zm-6,.43h-.1l-3.32.21-.1-1,3.32-.22h.1Zm-5.86.32h-.68l-2.73.22v-1l2.73-.22h.68Zm-5.95.32h-.48l-2.54.11H9.65v-1h.49l2.54-.1h.48Zm-5.95.33H3.8v-1h.58L6,138.54H7.21Z"/></g></g><path d="M89.45,219.21v-3.58H87.52V215h1.93v-2H87.78a7.86,7.86,0,0,1-3.21,4.27l-.58-.49a6.42,6.42,0,0,0,2.26-2.16,6.14,6.14,0,0,0,1.09-3.05H84.55v-.64h3.56a8.77,8.77,0,0,1-.17,1.42h1.51v-2.05h.72v8.92Zm1.73.3V210.1h.73v9.41Z"/><path d="M99,215a6,6,0,0,1-1.29-1,4.15,4.15,0,0,1-.9-1.18,5,5,0,0,1-.93,1.32,5.66,5.66,0,0,1-1.31,1.07l-.52-.51a4.39,4.39,0,0,0,1.69-1.4,3.15,3.15,0,0,0,.69-1.93v-.23H94.37v-.65h4.85v.65H97.15v.23a2.83,2.83,0,0,0,.7,1.81,4.22,4.22,0,0,0,1.65,1.26Zm-.14,4.38a4.28,4.28,0,0,1-2.28-.51,1.49,1.49,0,0,1,0-2.64,5.45,5.45,0,0,1,4.56,0,1.49,1.49,0,0,1,0,2.64A4.28,4.28,0,0,1,98.87,219.38Zm0-3a3.55,3.55,0,0,0-1.71.33,1,1,0,0,0-.59.87,1,1,0,0,0,.59.86,3.47,3.47,0,0,0,1.71.34,3.41,3.41,0,0,0,1.7-.34,1,1,0,0,0,.6-.86,1,1,0,0,0-.59-.87A3.6,3.6,0,0,0,98.87,216.35Zm2.16-.81v-2.68h-2.2v-.65H101V210.1h.73v5.44Z"/><path d="M52.29,102.15v-.65H61v.65Zm7.26-6.26h-5v2.93h5.2v.65H53.77V95.24h5.78Z"/><path d="M62.29,100.39v-.65h4v-1.1H63.76V96.32h5.07v-1H63.76v-.64h5.8V97H64.48v1h5.3v.65H67v1.1h4v.65Zm1.44,3.22V101h.73V103h5.33v.66Z"/><path d="M75.8,99.14v-.65h3.71V96.58h.72v1.91h4.31v.65Zm4.35,4.49a4.25,4.25,0,0,1-2.26-.5,1.49,1.49,0,0,1-.8-1.31,1.53,1.53,0,0,1,.79-1.32,4.32,4.32,0,0,1,2.27-.5,4.25,4.25,0,0,1,2.26.5,1.52,1.52,0,0,1,.8,1.32,1.49,1.49,0,0,1-.8,1.31A4.28,4.28,0,0,1,80.15,103.63Zm3.11-9a30.78,30.78,0,0,1-.12,3.15l-.7,0c.06-.69.09-1.5.09-2.45H77.32v-.65Zm-3.11,6a3.47,3.47,0,0,0-1.68.33.93.93,0,0,0,0,1.74,3.55,3.55,0,0,0,1.69.32,3.5,3.5,0,0,0,1.69-.32,1,1,0,0,0,.59-.87,1,1,0,0,0-.59-.87A3.54,3.54,0,0,0,80.15,100.62Z"/><path d="M88.16,103.77v-3.48H85.8v-.66h8.74v.66H92.18v3.48h-.73v-3.48H88.89v3.48Zm2-5.22A3.93,3.93,0,0,1,87.94,98a1.76,1.76,0,0,1,0-3,3.86,3.86,0,0,1,2.22-.56,3.89,3.89,0,0,1,2.25.56,1.7,1.7,0,0,1,.8,1.48,1.67,1.67,0,0,1-.8,1.47A3.9,3.9,0,0,1,90.17,98.55Zm0-3.43a3.15,3.15,0,0,0-1.67.38,1.17,1.17,0,0,0-.6,1,1.15,1.15,0,0,0,.6,1,3.88,3.88,0,0,0,3.35,0,1.16,1.16,0,0,0,.59-1,1.18,1.18,0,0,0-.59-1A3.17,3.17,0,0,0,90.17,95.12Z"/><path d="M60.53,35.06V28.91h.73v2.42h3.05V28.91H65v6.15ZM64.31,32H61.26v2.43h3.05Zm2.56,5.65V28.21h.73v9.42Z"/><path d="M75.88,34.94a14.64,14.64,0,0,1-1.71.12c-.62,0-1.74,0-3.35,0v-6h4.54v.65H71.55v4.74a37.74,37.74,0,0,0,4.28-.13ZM77,37.63V28.21h.73v9.42Z"/><path d="M79.87,36.14V35.5h4V33.6a3.56,3.56,0,0,1-2.08-.73,2.05,2.05,0,0,1-.73-1.63,2,2,0,0,1,.88-1.73,4.58,4.58,0,0,1,4.6,0,2,2,0,0,1,.87,1.73,2,2,0,0,1-.73,1.63,3.53,3.53,0,0,1-2.07.73v1.9h4v.64Zm1.95-4.9a1.45,1.45,0,0,0,.67,1.26,3.09,3.09,0,0,0,1.75.46A3,3,0,0,0,86,32.49,1.51,1.51,0,0,0,86,30a3.49,3.49,0,0,0-3.5,0A1.43,1.43,0,0,0,81.82,31.24Z"/><path d="M98.25,28.7c-.17,2.21-1.59,3.86-4.26,5l-.53-.59a6.24,6.24,0,0,0,2.69-1.56,4.08,4.08,0,0,0,1.24-2.17H94.06V28.7Zm-3.2,8.71V34h5.71v3.45Zm5-2.8H95.77v2.15H100Zm.71-3.22v2H100V28.21h.72v2.53h1.43v.65Z"/><path d="M108.65,35.24a8,8,0,0,1-1.49-1.52,5,5,0,0,1-.87-1.58,5.57,5.57,0,0,1-.9,1.68,7.1,7.1,0,0,1-1.45,1.53l-.56-.48a5.91,5.91,0,0,0,1.85-2,4.94,4.94,0,0,0,.69-2.47V28.86h.72v1.5a4.72,4.72,0,0,0,.68,2.39,5.63,5.63,0,0,0,1.84,1.92Zm1.84,2.39V28.21h.73v9.42Z"/><path d="M224.65,40.48v-.65h8.74v.65Zm7.26-6.26h-5v2.93h5.2v.65h-5.93V33.57h5.78Z"/><path d="M234.65,38.72v-.65h4V37h-2.53V34.65h5.06v-1h-5.06V33h5.8v2.28h-5.08v1h5.3V37h-2.75v1.1h4v.65Zm1.44,3.22V39.35h.72v1.93h5.34v.66Z"/><path d="M254.22,38c-.44,0-1.36.07-2.78.11s-2.5,0-3.27,0l-.07-.65c.84,0,1.61,0,2.32,0V35.39h.73v2.08c1.22,0,2.23,0,3-.1Zm-.64-4.67a30.78,30.78,0,0,1-.15,3.29l-.71,0a25.24,25.24,0,0,0,.13-2.59h-4v-.65Zm-3.82,8.46V39.07h.73v2.07h5.4v.65Zm5.88-5v2.88h-.73v-7h.73v3.48h1.41v.66Z"/><path d="M258.87,40.08V36.34h3.58V34.17h-3.58v-.65h4.31V37H259.6v2.46a29.81,29.81,0,0,0,4.49-.2l.08.63A37.44,37.44,0,0,1,258.87,40.08Zm6.29,2V32.69h.73v9.42Z"/><path d="M222.54,135.47v-4h.71V133h2.88v-1.47h.72v4Zm3.59-1.86h-2.88v1.23h2.88Zm-2.51,6.88v-2.31h5v-1h-5v-.65h5.74v2.29h-5v1.07h5.3v.64Zm5.74-6.37V136h-.72v-4.79h.72v2.29h1.42v.65Z"/><path d="M232,136.23v-.66h4v-1.38h.75v1.38h4v.66Zm7.9-1.67a5.94,5.94,0,0,1-2.12-.73,3.89,3.89,0,0,1-1.4-1.19,3.82,3.82,0,0,1-1.38,1.17,5.67,5.67,0,0,1-2.11.74l-.43-.59a4.89,4.89,0,0,0,2.52-.86c.69-.49,1-1,1-1.43v-.28h.73v.28c0,.48.34,1,1,1.45a4.89,4.89,0,0,0,2.52.85Zm-3.53,5.95a4.42,4.42,0,0,1-2.24-.47,1.47,1.47,0,0,1-.77-1.3,1.43,1.43,0,0,1,.78-1.27,5.55,5.55,0,0,1,4.47,0,1.43,1.43,0,0,1,.78,1.27,1.47,1.47,0,0,1-.77,1.3A4.44,4.44,0,0,1,236.35,140.51Zm0-2.89a3.76,3.76,0,0,0-1.69.3.91.91,0,0,0-.57.82.93.93,0,0,0,.58.84,3.75,3.75,0,0,0,1.68.31,3.69,3.69,0,0,0,1.68-.31.93.93,0,0,0,.59-.84.92.92,0,0,0-.58-.82A3.73,3.73,0,0,0,236.35,137.62Z"/><path d="M269.21,232.43v-.71h4.08v-1.33h.79v1.33h4.74v.71Zm1.33-2.27-.16-.74,6.28-.22v-.92h-5.84v-.69h6.64a34.76,34.76,0,0,1-.13,3.57l-.77,0q0-.33.06-1.26Zm.25,7.3v-2.4h5.66v-1h-5.66v-.7h6.45v2.36h-5.66v1h5.93v.72Z"/><path d="M288.94,233a5,5,0,0,1-1.18-1,4.89,4.89,0,0,1-.84-1.23,4.86,4.86,0,0,1-.81,1.37,5.35,5.35,0,0,1-1.25,1.16l-.59-.56a4.17,4.17,0,0,0,1.61-1.46,3.71,3.71,0,0,0,.63-2.05V227.8h.78v1.37a3.19,3.19,0,0,0,.63,1.88,3.94,3.94,0,0,0,1.55,1.33Zm-2.45,4.38v-3.25h.8v2.53h6v.72Zm3.85-2.85v-4.11h-1.75v-.71h1.75v-2.11h.79v6.93Zm1.84.27v-7.41h.8v7.41Z"/><path d="M297,231.9v2.56h1.24a30.31,30.31,0,0,0,3.44-.14l.05.69a16.07,16.07,0,0,1-1.77.12c-.64,0-1.89,0-3.76,0v-6.93h5V229H297v2.25h3v.69Zm6,5.81v-5.29h-2v-.7h2v-4.37h.79v10.36Z"/><path d="M355.67,244v2.07c1.61,0,2.66-.08,3.14-.11l0,.69q-3,.18-7.08.18l-.08-.72c1.14,0,2.19,0,3.17,0V244a2.73,2.73,0,0,1-1.75-.8,2.34,2.34,0,0,1-.65-1.68,2.24,2.24,0,0,1,.81-1.78,2.91,2.91,0,0,1,2-.7,2.81,2.81,0,0,1,2,.69,2.5,2.5,0,0,1,.14,3.44A2.77,2.77,0,0,1,355.67,244Zm-.45-4.25a2,2,0,0,0-1.39.5,1.66,1.66,0,0,0-.54,1.28,1.7,1.7,0,0,0,.54,1.29,2.19,2.19,0,0,0,2.8,0,1.76,1.76,0,0,0,0-2.56A2,2,0,0,0,355.22,239.78Zm4.2,8.88V238.3h.81v10.36Z"/><path d="M367.75,244.91v3.75H367v-3.75h-4.4v-.72h9.61v.72Zm-3.65-2.07v-4.23h.79v1.47h4.93v-1.47h.79v4.23Zm5.72-2.05h-4.93v1.35h4.93Z"/><path d="M383.2,246a8.64,8.64,0,0,1-1.63-1.67,5.32,5.32,0,0,1-1-1.74,6.53,6.53,0,0,1-1,1.86,8.3,8.3,0,0,1-1.6,1.68l-.61-.53a6.48,6.48,0,0,0,2-2.2,5.41,5.41,0,0,0,.76-2.72V239H381v1.66a5.16,5.16,0,0,0,.75,2.63,6.27,6.27,0,0,0,2,2.11Zm2,2.63V238.3h.8v10.36Z"/><path d="M398,246.93h-9.61v-.72H398ZM393.21,241a4.7,4.7,0,0,1-1.48,1.66,6.86,6.86,0,0,1-2.36,1.17l-.54-.64a5.59,5.59,0,0,0,2.9-1.46,3.05,3.05,0,0,0,1.07-2v-.55h.83v.55a3,3,0,0,0,1.09,2,6,6,0,0,0,2.9,1.46l-.57.64a7.61,7.61,0,0,1-2.35-1.21A4.75,4.75,0,0,1,393.21,241Z"/><path d="M401.19,241.69v1.38a33.06,33.06,0,0,0,3.32-.11l.05.71c-1,.07-2.35.11-4.17.11v-4.95h4v.7h-3.17V241h2.3v.69Zm.54,6.69v-3.67h6.48v3.67Zm5.69-3h-4.9v2.25h4.9Zm-1.86-1.28v-2.52h-1.42v-.72h1.42v-2.39h.78v5.63Zm1.85,0V238.3h.8v5.84Z"/><path d="M383.28,181v2.07c1.6,0,2.65-.08,3.13-.11l0,.69q-3,.18-7.09.18l-.08-.72c1.14,0,2.19,0,3.17,0V181a2.73,2.73,0,0,1-1.75-.8,2.34,2.34,0,0,1-.65-1.68,2.24,2.24,0,0,1,.81-1.78,2.91,2.91,0,0,1,2-.7,2.81,2.81,0,0,1,2,.69,2.47,2.47,0,0,1,.14,3.44A2.77,2.77,0,0,1,383.28,181Zm-.46-4.25a2,2,0,0,0-1.38.5,1.64,1.64,0,0,0-.55,1.28,1.7,1.7,0,0,0,.54,1.29,2.19,2.19,0,0,0,2.8,0,1.76,1.76,0,0,0,0-2.56A2,2,0,0,0,382.82,176.78Zm4.2,8.88V175.3h.81v10.36Z"/><path d="M395.35,181.91v3.75h-.8v-3.75h-4.4v-.72h9.61v.72Zm-3.65-2.07v-4.23h.79v1.47h4.93v-1.47h.79v4.23Zm5.72-2.05h-4.93v1.35h4.93Z"/><path d="M410.8,183a8.64,8.64,0,0,1-1.63-1.67,5.51,5.51,0,0,1-1-1.74,6.53,6.53,0,0,1-1,1.86,8.3,8.3,0,0,1-1.6,1.68l-.61-.53a6.48,6.48,0,0,0,2-2.2,5.41,5.41,0,0,0,.76-2.72V176h.79v1.66a5.16,5.16,0,0,0,.75,2.63,6.2,6.2,0,0,0,2,2.11Zm2,2.63V175.3h.8v10.36Z"/><path d="M425.63,183.93H416v-.72h9.61ZM420.81,178a4.7,4.7,0,0,1-1.48,1.66,6.86,6.86,0,0,1-2.36,1.17l-.54-.64a5.59,5.59,0,0,0,2.9-1.46,3.07,3.07,0,0,0,1.08-2v-.55h.82v.55a3,3,0,0,0,1.1,2,5.92,5.92,0,0,0,2.89,1.46l-.57.64a7.61,7.61,0,0,1-2.35-1.21A4.85,4.85,0,0,1,420.81,178Z"/><path d="M428.79,178.69v1.38a33.06,33.06,0,0,0,3.32-.11l.05.71c-1,.07-2.35.11-4.17.11v-4.95h4v.7h-3.17V178h2.3v.69Zm.54,6.69v-3.67h6.48v3.67Zm5.7-3h-4.91v2.25H435Zm-1.87-1.28v-2.52h-1.42v-.72h1.42v-2.39H434v5.63Zm1.85,0V175.3h.8v5.84Z"/><path d="M385.73,137v2.23h.47a34.8,34.8,0,0,0,4-.14l.06.66c-.55.07-1.15.11-1.8.13l-3.47,0v-6.36h4.62v.68h-3.85v2.1h3.59V137Zm6.22.23v5.33h-.77V132.7H392v3.86h1.67v.7Z"/><path d="M400.6,140.08a8.38,8.38,0,0,1-1.55-1.59,6,6,0,0,1-.93-1.66,6.07,6.07,0,0,1-.92,1.75,8.24,8.24,0,0,1-1.53,1.63l-.59-.52A6.14,6.14,0,0,0,397,137.6a5.24,5.24,0,0,0,.72-2.6v-1.62h.77V135a5,5,0,0,0,.71,2.52,6,6,0,0,0,1.93,2Zm2.21-2.68v5.19h-.76V132.7h.76v4h1.72v.68Z"/><path d="M414.32,140.7v-2.28H410v-.69h9.18v.69h-4.14v2.28Zm-2.78,1.58v-2.93h.76v2.24h5.62v.69Zm3.09-5.46a4,4,0,0,1-2.27-.56,1.66,1.66,0,0,1,0-2.85,4,4,0,0,1,2.27-.55,4,4,0,0,1,2.29.55,1.66,1.66,0,0,1,0,2.85A4,4,0,0,1,414.63,136.82Zm0-3.3a3.32,3.32,0,0,0-1.69.36,1.07,1.07,0,0,0,0,1.92,3.28,3.28,0,0,0,1.68.36,3.32,3.32,0,0,0,1.69-.36,1.07,1.07,0,0,0,0-1.92A3.29,3.29,0,0,0,414.63,133.52Z"/><path d="M420.91,138v-.69h4.2v-1.45h.78v1.45h4.2V138Zm8.3-1.75a6.62,6.62,0,0,1-2.24-.77,4.15,4.15,0,0,1-1.46-1.25,4.22,4.22,0,0,1-1.45,1.22,6,6,0,0,1-2.21.79l-.46-.62a5.18,5.18,0,0,0,2.65-.91q1.08-.77,1.08-1.5v-.29h.76v.29c0,.5.36,1,1.08,1.52a5.2,5.2,0,0,0,2.65.9Zm-3.71,6.24a4.56,4.56,0,0,1-2.35-.5,1.51,1.51,0,0,1,0-2.69,5.88,5.88,0,0,1,4.7,0,1.51,1.51,0,0,1,0,2.69A4.54,4.54,0,0,1,425.5,142.49Zm0-3a3.94,3.94,0,0,0-1.78.31.94.94,0,0,0,0,1.75,4,4,0,0,0,1.77.31,3.91,3.91,0,0,0,1.76-.31.93.93,0,0,0,0-1.75A3.9,3.9,0,0,0,425.5,139.46Z"/></svg>